Coordinates
version=1
nRows=19
nColumns=24
inDegrees=yes

Units are S.I. units (second, meters, Newtons, ...)
Angles are in degrees.

endheader
time	pelvis_tilt	pelvis_list	pelvis_rotation	pelvis_tx	pelvis_ty	pelvis_tz	hip_flexion_r	hip_adduction_r	hip_rotation_r	knee_angle_r	ankle_angle_r	subtalar_angle_r	mtp_angle_r	hip_flexion_l	hip_adduction_l	hip_rotation_l	knee_angle_l	ankle_angle_l	subtalar_angle_l	mtp_angle_l	lumbar_extension	lumbar_bending	lumbar_rotation
      0.81650000	     -0.35999404	     -1.13534691	      1.27545541	     -0.47109711	      0.99814623	      0.32065923	     12.57579073	      4.87771717	      1.16613784	    -21.70612190	     13.30636372	    -11.31785845	     -1.93544036	     15.00592664	     -1.90309236	     -4.35390796	    -71.66880591	     -8.89232835	    -10.61499919	      5.22929948	    -11.93806602	      9.00051491	     -1.34041354
      0.82066667	     -0.27810458	     -0.97223413	      1.26052683	     -0.46627479	      0.99925615	      0.32096712	     11.96787196	      4.74509870	      1.28947362	    -21.27657889	     13.34615557	    -11.39014304	     -1.95258246	     15.50166547	     -1.80715935	     -4.46782055	    -71.55429113	     -8.49392503	    -10.97685399	      5.04055810	    -12.10371894	      8.67579082	     -0.88033047
      0.82483333	     -0.22180996	     -0.82031457	      1.24994221	     -0.46144422	      1.00028593	      0.32124790	     11.38688727	      4.61650036	      1.38226245	    -20.84509866	     13.40275066	    -11.41757009	     -1.97069310	     16.01853897	     -1.71952061	     -4.57279147	    -71.40150572	     -8.04998800	    -11.26701828	      4.83122342	    -12.20848103	      8.40595709	     -0.56619220
      0.82900000	     -0.17320301	     -0.65653929	      1.23681766	     -0.45660733	      1.00129907	      0.32151698	     10.81088176	      4.47187791	      1.46815257	    -20.40744316	     13.45786875	    -11.43268515	     -1.98765691	     16.52864205	     -1.61290079	     -4.67640175	    -71.18753396	     -7.63636006	    -11.55439015	      4.63396644	    -12.29537251	      8.12985918	     -0.29883227
      0.83316667	     -0.13318058	     -0.48795278	      1.22403382	     -0.45180247	      1.00223839	      0.32176802	     10.25846766	      4.31610488	      1.52986854	    -19.99733421	     13.50663828	    -11.40773107	     -1.99738700	     17.04245843	     -1.49520284	     -4.77252621	    -70.93701709	     -7.17863949	    -11.81773664	      4.52740033	    -12.38251851	      7.86297311	     -0.12515762
      0.83733333	     -0.06016665	     -0.32059546	      1.19643501	     -0.44694343	      1.00323466	      0.32203002	      9.64111186	      4.16391605	      1.61378077	    -19.52790781	     13.57639282	    -11.40909027	     -2.01321182	     17.49436168	     -1.38508193	     -4.88696032	    -70.61117074	     -6.79690268	    -12.03587452	      4.34781289	    -12.49052269	      7.57600963	      0.23493725
      0.84150000	     -0.02232345	     -0.17288778	      1.15926064	     -0.44210829	      1.00411673	      0.32229815	      9.07387660	      4.03099533	      1.69367478	    -19.07865844	     13.62804359	    -11.36963147	     -2.04935503	     17.98047475	     -1.29597136	     -5.00204390	    -70.25923489	     -6.35288091	    -12.25163203	      3.93535803	    -12.57122602	      7.31544748	      0.60482155
      0.84566667	      0.05350967	      0.02724847	      1.14496240	     -0.43727212	      1.00505600	      0.32250953	      8.46407621	      3.83192298	      1.72891091	    -18.63198879	     13.70185020	    -11.34323811	     -2.06447002	     18.40361105	     -1.13089484	     -5.08850023	    -69.82572209	     -5.95832946	    -12.39554099	      3.77944968	    -12.68141922	      7.01106196	      0.76308863
      0.84983333	      0.06368747	      0.20412233	      1.12337578	     -0.43245273	      1.00583666	      0.32270283	      7.93863915	      3.65258884	      1.74989316	    -18.20676632	     13.72697341	    -11.29110070	     -2.07276167	     18.89444267	     -0.98536448	     -5.17049569	    -69.36845300	     -5.50356628	    -12.55922932	      3.70667664	    -12.71390486	      6.74748215	      0.91434011
      0.85400000	      0.14308929	      0.36493971	      1.09578811	     -0.42761925	      1.00668228	      0.32292362	      7.31396413	      3.49552296	      1.79789725	    -17.73032396	     13.81708773	    -11.23414304	     -2.08726280	     19.29272490	     -0.86688883	     -5.25592335	    -68.85576876	     -5.09951063	    -12.63463621	      3.55916658	    -12.84491927	      6.46435234	      1.25748706
      0.85816667	      0.17386236	      0.53914974	      1.07474903	     -0.42281360	      1.00741183	      0.32309110	      6.75946433	      3.31574211	      1.82286662	    -17.28840424	     13.86309718	    -11.16307506	     -2.09903498	     19.73506059	     -0.71299617	     -5.31581029	    -68.30106744	     -4.66069817	    -12.71915326	      3.45084108	    -12.92101681	      6.20156172	      1.45521391
      0.86233333	      0.21739457	      0.68342924	      1.05137331	     -0.41798162	      1.00810468	      0.32327046	      6.18150863	      3.16779144	      1.83066200	    -16.82438720	     13.93024760	    -11.09794740	     -2.11371532	     20.15149687	     -0.60340387	     -5.38611614	    -67.70907713	     -4.21718176	    -12.74079781	      3.31310516	    -12.99148363	      5.95182830	      1.72764493
      0.86650000	      0.25180532	      0.84761590	      1.02918356	     -0.41315729	      1.00876311	      0.32341494	      5.61894857	      2.99366870	      1.83256785	    -16.37235581	     13.99015443	    -11.01124999	     -2.12830823	     20.55991579	     -0.45663004	     -5.43970413	    -67.05800689	     -3.78338498	    -12.76692945	      3.17782094	    -13.05924116	      5.69451671	      1.94621050
      0.87066667	      0.27854187	      0.98749577	      1.01250683	     -0.40834679	      1.00934033	      0.32354406	      5.06496414	      2.84377180	      1.82273074	    -15.91618362	     14.04383314	    -10.92381042	     -2.14217333	     20.97059325	     -0.33174043	     -5.47499714	    -66.37753745	     -3.33067326	    -12.74408859	      3.04736749	    -13.12037100	      5.46863895	      2.15610919
      0.87483333	      0.32766935	      1.11683193	      0.98656980	     -0.40352398	      1.00991162	      0.32365651	      4.48282024	      2.70288915	      1.81325280	    -15.44946079	     14.07809192	    -10.82901041	     -2.16534372	     21.33841926	     -0.21708716	     -5.51408723	    -65.64853208	     -2.86794129	    -12.72145774	      2.82177666	    -13.20169357	      5.26767686	      2.40067924
      0.87900000	      0.35866281	      1.27154696	      0.98198749	     -0.39871552	      1.01042650	      0.32373766	      3.92646206	      2.53066398	      1.77591661	    -14.99828723	     14.14425468	    -10.73120260	     -2.17518993	     21.71267685	     -0.05697113	     -5.51728141	    -64.86258336	     -2.44863590	    -12.63762822	      2.71890371	    -13.27225967	      5.02509686	      2.54039487
      0.88316667	      0.35731483	      1.39143650	      0.96017588	     -0.39389673	      1.01082191	      0.32381723	      3.41030156	      2.39464487	      1.74801413	    -14.55466586	     14.19217169	    -10.60552402	     -2.19043307	     22.11044872	      0.06235911	     -5.52796879	    -64.05078254	     -1.99355805	    -12.56810557	      2.53910253	    -13.30096755	      4.83416026	      2.76992817
      0.88733333	      0.39078260	      1.51465296	      0.96038022	     -0.38907919	      1.01123686	      0.32386740	      2.84658240	      2.25405728	      1.69910770	    -14.09133341	     14.24780424	    -10.50859514	     -2.19721903	     22.45486806	      0.19907025	     -5.50237383	    -63.18372790	     -1.58547560	    -12.44273247	      2.44976768	    -13.36857897	      4.63850604	      2.90522015
      0.89150000	      0.39493215	      1.64771645	      0.95072370	     -0.38425775	      1.01157660	      0.32388450	      2.32722670	      2.09717257	      1.63844253	    -13.65220840	     14.26099125	    -10.39207675	     -2.20126123	     22.80984067	      0.35697307	     -5.47337546	    -62.26178282	     -1.18176931	    -12.34702553	      2.39254181	    -13.39889167	      4.45118569	      3.03764047
